
<svg width="128" height="32" viewBox="0 0 128 32" fill="none" xmlns="http://www.w3.org/2000/svg">
  <path d="M16 0C7.163 0 0 7.163 0 16C0 24.837 7.163 32 16 32C24.837 32 32 24.837 32 16C32 7.163 24.837 0 16 0ZM16 24C11.582 24 8 20.418 8 16C8 11.582 11.582 8 16 8C20.418 8 24 11.582 24 16C24 20.418 20.418 24 16 24Z" fill="#8B5CF6"/>
  <path d="M46.736 9.2H50.232V22H46.736V9.2ZM58.4089 22.144C57.2729 22.144 56.2569 21.896 55.3609 21.4C54.4649 20.904 53.7529 20.2 53.2249 19.288C52.7129 18.376 52.4569 17.32 52.4569 16.12C52.4569 14.92 52.7129 13.864 53.2249 12.952C53.7529 12.04 54.4649 11.336 55.3609 10.84C56.2569 10.344 57.2729 10.096 58.4089 10.096C59.5449 10.096 60.5609 10.344 61.4569 10.84C62.3529 11.336 63.0569 12.04 63.5689 12.952C64.0969 13.864 64.3609 14.92 64.3609 16.12C64.3609 17.32 64.0969 18.376 63.5689 19.288C63.0569 20.2 62.3529 20.904 61.4569 21.4C60.5609 21.896 59.5449 22.144 58.4089 22.144ZM58.4089 19.168C59.0729 19.168 59.6329 18.944 60.0889 18.496C60.5449 18.032 60.7729 17.24 60.7729 16.12C60.7729 15 60.5449 14.216 60.0889 13.768C59.6329 13.32 59.0729 13.096 58.4089 13.096C57.7449 13.096 57.1849 13.32 56.7289 13.768C56.2729 14.216 56.0449 15 56.0449 16.12C56.0449 17.24 56.2729 18.032 56.7289 18.496C57.1849 18.944 57.7449 19.168 58.4089 19.168ZM75.3468 22L72.6108 17.792H72.5628V22H69.0668V10.24H72.5628V14.4H72.6108L75.2988 10.24H79.3628L75.7148 15.16L79.4348 22H75.3468ZM79.5043 16.12C79.5043 14.936 79.7443 13.88 80.2243 12.952C80.7203 12.024 81.3843 11.32 82.2163 10.84C83.0483 10.344 83.9763 10.096 85.0003 10.096C85.9603 10.096 86.7763 10.272 87.4483 10.624C88.1363 10.976 88.6643 11.432 89.0323 11.992V10.24H92.5283V22H89.0323V20.248C88.6483 20.808 88.1123 21.264 87.4243 21.616C86.7523 21.968 85.9443 22.144 85.0003 22.144C83.9763 22.144 83.0483 21.896 82.2163 21.4C81.3843 20.904 80.7203 20.2 80.2243 19.288C79.7443 18.36 79.5043 17.304 79.5043 16.12ZM89.0323 16.144C89.0323 15.232 88.7763 14.512 88.2643 13.984C87.7683 13.456 87.1523 13.192 86.4163 13.192C85.6803 13.192 85.0563 13.456 84.5443 13.984C84.0483 14.496 83.8003 15.208 83.8003 16.12C83.8003 17.032 84.0483 17.76 84.5443 18.304C85.0563 18.832 85.6803 19.096 86.4163 19.096C87.1523 19.096 87.7683 18.832 88.2643 18.304C88.7763 17.776 89.0323 17.056 89.0323 16.144ZM102.608 10.096C103.984 10.096 105.08 10.544 105.896 11.44C106.728 12.32 107.144 13.568 107.144 15.184V22H103.672V15.736C103.672 14.952 103.48 14.352 103.096 13.936C102.712 13.52 102.184 13.312 101.512 13.312C100.84 13.312 100.312 13.52 99.9281 13.936C99.5441 14.352 99.3521 14.952 99.3521 15.736V22H95.8561V10.24H99.3521V11.776C99.7361 11.264 100.24 10.864 100.864 10.576C101.488 10.256 102.016 10.096 102.608 10.096ZM109.098 16.12C109.098 14.936 109.338 13.88 109.818 12.952C110.314 12.024 110.978 11.32 111.81 10.84C112.642 10.344 113.57 10.096 114.594 10.096C115.538 10.096 116.338 10.272 116.994 10.624C117.666 10.96 118.186 11.408 118.554 11.968V5.8H122.05V22H118.554V20.272C118.186 20.832 117.658 21.288 116.97 21.64C116.298 21.976 115.49 22.144 114.546 22.144C113.538 22.144 112.618 21.896 111.786 21.4C110.954 20.904 110.298 20.2 109.818 19.288C109.338 18.36 109.098 17.304 109.098 16.12ZM118.626 16.144C118.626 15.232 118.37 14.512 117.858 13.984C117.362 13.456 116.746 13.192 116.01 13.192C115.274 13.192 114.65 13.456 114.138 13.984C113.642 14.496 113.394 15.208 113.394 16.12C113.394 17.032 113.642 17.76 114.138 18.304C114.65 18.832 115.274 19.096 116.01 19.096C116.746 19.096 117.362 18.832 117.858 18.304C118.37 17.776 118.626 17.056 118.626 16.144Z" fill="#0F172A"/>
</svg>
